# xmcd
#
# Track frame offsets: 
#        150
#        3299
#        19360
#        36325
#        53028
#        73259
#        90088
#        107553
#        123958
#        137206
#        149737
#        161608
#        166550
#        183370
#        196338
#        211949
#        225498
#        228333
#        246595
#
# Disc length: 3474 seconds
#
# Revision: 1
# Processed by: cddbd v1.5.2PL0 Copyright (c) Steve Scherf et al.
# Submitted via: ExactAudioCopyFreeDBPlugin 1.0
#
DISCID=010d9013
DTITLE=Styles P - Super Gangster (Extraordinary Gentleman)
DYEAR=2007
DGENRE=Rap
TTITLE0=Intro
TTITLE1=Blow Your Mind Feat. Swizz Beatz
TTITLE2=Let's Go Feat. Ray J
TTITLE3=Alone In The Street
TTITLE4=In It To Win It Feat. Bully
TTITLE5=All I Know Is Pain Feat. The Alchemist
TTITLE6=Got My Eyes On You Feat. Akon
TTITLE7=Green Piece Of Paper
TTITLE8=Holiday Feat. Max B
TTITLE9=Look At Her
TTITLE10=Da 80's
TTITLE11=Interlude 1 Feat. Comedian Tony Roberts
TTITLE12=Shoot Niggas Feat. Raw Buck
TTITLE13=Super Gangster
TTITLE14=Star Of The State Feat. Ghostface Killah
TTITLE15=U Ain't Ready For Me Feat. Beanie Sigel
TTITLE16=Interlude 2 Feat. Comedian Tony Roberts
TTITLE17=Gangster, Gangster Feat. Jadakiss and Sheek Louch
TTITLE18=Cause I'm Black Feat. Black Thought
EXTD=
EXTT0=
EXTT1=
EXTT2=
EXTT3=
EXTT4=
EXTT5=
EXTT6=
EXTT7=
EXTT8=
EXTT9=
EXTT10=
EXTT11=
EXTT12=
EXTT13=
EXTT14=
EXTT15=
EXTT16=
EXTT17=
EXTT18=
PLAYORDER=
